<?xml version="1.0" encoding="utf-8"?>
<!-- Generator: Adobe Illustrator 16.0.0, SVG Export Plug-In . SVG Version: 6.00 Build 0)  -->
<!DOCTYPE svg PUBLIC "-//W3C//DTD SVG 1.1//EN" "http://www.w3.org/Graphics/SVG/1.1/DTD/svg11.dtd">
<svg version="1.1" id="Layer_1" xmlns="http://www.w3.org/2000/svg" xmlns:xlink="http://www.w3.org/1999/xlink" x="0px" y="0px"
	 width="800px" height="400px" viewBox="0 0 800 400" enable-background="new 0 0 800 400" xml:space="preserve">
<g>
	<path d="M480.018,217.029l-11.605,10.829l-15.741-16.995h-9.211v11.432h-15.741v-46.133h27.947c5.742,0,10.476,1.473,14.186,4.424
		c3.909,3.152,5.864,7.463,5.864,12.927c0,5.345-1.902,9.595-5.688,12.743L480.018,217.029z M458.536,193.513
		c0-1.115-0.388-1.993-1.166-2.632c-0.776-0.639-1.767-0.958-2.958-0.958H443.46v7.181h10.952c1.191,0,2.182-0.319,2.958-0.958
		C458.148,195.506,458.536,194.628,458.536,193.513z"/>
	<path d="M530.46,199.139c0,6.976-2.595,12.94-7.772,17.891c-5.187,4.949-11.428,7.418-18.734,7.418
		c-7.292,0-13.541-2.469-18.723-7.418c-5.189-4.95-7.782-10.915-7.782-17.891c0-6.982,2.593-12.944,7.782-17.895
		c5.182-4.943,11.431-7.419,18.723-7.419c7.307,0,13.548,2.476,18.734,7.419C527.865,186.194,530.46,192.156,530.46,199.139z
		 M512.036,200.093c0-2.151-0.789-3.999-2.367-5.533c-1.581-1.536-3.484-2.306-5.716-2.306s-4.136,0.771-5.713,2.306
		c-1.578,1.534-2.359,3.382-2.359,5.533c0,2.159,0.781,4.004,2.359,5.53c1.577,1.544,3.481,2.31,5.713,2.31s4.135-0.766,5.716-2.31
		C511.247,204.098,512.036,202.252,512.036,200.093z"/>
	<path d="M570.736,222.355l-29.323-0.061c-5.983-6.581-8.974-14.264-8.974-23.036c0-8.817,2.99-16.519,8.974-23.098h29.323v14.299
		h-19.448c-1.479,2.713-2.22,5.646-2.22,8.798c0,3.188,0.766,6.118,2.279,8.797h19.389V222.355z"/>
	<path d="M615.905,176.162l-11.607,15.797l10.956,30.336H598.26l-5.39-14.839l-4.849,6.578v8.261h-15.854v-46.133h15.854v12.504
		l9.223-12.504H615.905z"/>
	<path d="M650.495,190.461h-14.303c3.434,1.354,6.269,4.017,8.524,7.99c2.255,3.965,3.383,8.202,3.383,12.713
		c0,4.027-0.952,7.738-2.869,11.131h-27.949v-14.238h14.54c-3.468-1.361-6.357-4.023-8.673-7.99
		c-2.314-3.972-3.472-8.228-3.472-12.776c0-4.147,0.962-7.856,2.871-11.128h27.947V190.461z"/>
</g>
<path fill="#E5BE00" d="M420.239,154.853l24.465,0.093l-17.506,32.303l27.769-3.687l-53.469,63.012l22.81-44.664l-24.364,3.68"/>
<g>
	<path d="M166.003,208.258c0,5.404,1.506,10.172,4.961,10.172c5.397,0,11.486-14.94,11.486-26.681
		c0-6.905-1.255-12.805-9.166-12.805c-10.171,0-16.95,5.713-16.95,15.255c0,3.203,0.813,3.703,0.878,4.269
		c-4.334,0-6.719-1.571-6.719-6.091c0-8.35,11.553-16.322,22.035-16.322c12.432,0,17.205,6.092,17.205,17.013
		c0,12.246-7.537,30.637-18.771,30.637c-8.037,0-12.872-3.767-12.872-14.184c0-11.745,4.143-28.066,13.435-28.066
		c0.942,0,1.881,0.187,2.953,0.501C169.33,188.738,166.003,197.967,166.003,208.258z"/>
	<path d="M239.085,180.576l-6.84,32.516c-0.192,0.691-0.316,1.383-0.316,2.01c0,1.385,0.689,2.331,3.141,2.331
		c2.51,0,5.773-3.517,8.284-5.526h2.136c-2.889,2.888-9.981,11.238-14.879,11.238c-4.835,0-7.787-2.142-7.787-6.845
		c0-0.945,0.127-2.01,0.379-3.208l6.779-32.016c-1.631-0.687-3.203-1.004-4.016-1.004c-1.384,0-3.267,0.756-4.268,4.959
		l-1.571,6.718h6.026l-0.5,2.51h-6.03l-6.968,33.906c-1.884,8.976-7.41,10.668-11.426,10.668c-2.637,0-5.713-1.253-7.41-3.383
		c-2.385,2.691-5.46,3.383-8.034,3.383c-3.832,0-7.408-2.694-7.408-6.777c0-5.779,4.895-7.593,10.86-9.417l7.535-35.851
		c1.881-8.976,7.282-10.671,11.426-10.671c2.827,0,5.59,1.509,6.782,4.019c2.384-3.263,5.586-4.082,8.349-4.082
		C228.977,176.054,233.247,177.56,239.085,180.576z M184.716,233.253c1.258,0,2.95-1.197,3.706-4.901l0.754-3.639
		c-3.955,1.318-6.97,3.076-6.97,6.462C182.206,232.056,183.337,233.253,184.716,233.253z M203.487,228.352l1.511-7.096l-6.658,1.383
		l-1.129,5.526c-0.376,1.691-0.879,3.197-1.442,4.395c0.812,0.747,2.384,0.942,3.389,0.942
		C200.476,233.502,202.674,232.056,203.487,228.352z M198.719,220.813l6.592-1.065l5.334-25.489h-6.278L198.719,220.813z
		 M212.216,186.788c0.188-0.878,0.253-1.631,0.253-2.257c0-2.385-1.259-2.89-2.264-2.89c-1.379,0-3.39,0.753-4.269,4.961
		l-1.065,5.147h6.279L212.216,186.788z"/>
	<path d="M252.532,191.749l-4.522,21.343c-0.127,0.691-0.252,1.383-0.252,1.953c0,1.375,0.626,2.388,3.141,2.388
		c2.512,0,5.775-3.517,8.286-5.526h2.137c-2.889,2.888-9.983,11.238-14.881,11.238c-4.834,0-7.846-2.142-7.846-6.845
		c0-0.945,0.122-2.01,0.375-3.208l4.521-21.343H252.532z M249.642,178.438c2.764,0,5.021,2.263,5.021,5.026
		c0,2.759-2.257,4.957-5.021,4.957c-2.763,0-4.961-2.197-4.961-4.957C244.681,180.702,246.879,178.438,249.642,178.438z"/>
	<path d="M281.288,213.092c-0.19,0.691-0.313,1.383-0.313,2.01c0,1.385,0.687,2.331,3.137,2.331c2.51,0,3.456-1.948,5.966-3.957
		h2.132c-2.885,2.888-7.659,9.669-12.553,9.669c-4.9,0-7.787-2.142-7.787-6.845c0-1.011,0.124-2.01,0.377-3.208l2.384-11.295
		c0.126-0.57,0.192-1.131,0.192-1.633c0-2.262-1.195-3.707-2.89-3.707c-1.505,0-2.637,0.439-3.955,1.318l-5.336,25.369H253.6
		l6.653-31.396h9.042l-0.752,3.39c2.571-1.883,5.46-3.39,8.224-3.39c3.389,0,7.218,3.642,7.218,7.851c0,0.5,0,1.004-0.126,1.505
		L281.288,213.092z"/>
	<path d="M286.881,213.156c0-7.975,3.389-21.973,14.815-21.973c5.148,0,8.037,2.137,8.037,6.532c0,7.662-8.226,12.056-14.189,12.804
		c-0.126,1.01-0.189,1.945-0.189,2.705c0,4.14,2.073,5.395,4.518,5.395c2.953,0,5.466-1.692,8.037-4.014
		c0,6.783-5.461,8.539-11.74,8.539C290.145,223.145,286.881,218.561,286.881,213.156z M303.768,194.513
		c-3.516,0-6.405,7.097-7.724,12.996c5.779-0.064,9.858-5.021,9.921-9.48C305.965,196.709,305.652,194.513,303.768,194.513z"/>
	<path d="M336.353,214.794l13.184-38.426h7.977v38.426l13.746-38.426h4.395L358.2,223.145h-9.037v-31.961l-12.684,31.961h-9.043
		v-42.882c-6.839,2.131-10.354,7.032-10.354,13.937c0,3.203,0.813,3.703,0.878,4.269c-4.334,0-6.719-1.571-6.719-6.091
		c0-8.35,11.553-16.322,22.035-16.322c0.878,0,1.697,0.062,2.51,0.126L336.353,214.794z"/>
	<path d="M384.266,218.619c3.077,0,8.351-3.638,10.548-8.285h2.823c-3.576,6.469-9.605,12.811-17.705,12.811
		c-6.026,0-9.289-4.584-9.289-9.988c0-7.975,3.389-21.973,14.816-21.973c5.147,0,8.037,2.137,8.037,6.532
		c0,7.662-8.224,12.056-14.19,12.804c-0.126,1.01-0.187,1.945-0.187,2.705C379.119,217.364,381.816,218.619,384.266,218.619z
		 M387.528,194.513c-3.515,0-6.405,7.097-7.723,12.996c5.779-0.064,9.86-5.021,9.921-9.48
		C389.726,196.709,389.414,194.513,387.528,194.513z"/>
	<path d="M410.194,179.193l-3.011,14.253c1.442-1.07,3.328-1.824,5.396-1.824c6.029,0,7.973,4.27,7.973,7.977
		c0,9.854-5.395,23.732-16.633,23.732c-6.218,0-10.36-1.759-10.36-7.164c0-0.879,0.127-1.946,0.379-3.076l6.966-32.643
		L410.194,179.193z M409.943,195.391c-0.629,0-2.828,0.44-3.387,0.879l-3.581,16.822c-0.308,1.514-0.502,2.637-0.502,3.461
		c0,1.877,0.879,2.317,2.765,2.317c5.146,0,8.284-14.315,8.284-18.832C413.522,196.27,411.513,195.391,409.943,195.391z"/>
</g>
</svg>
